<?xml version="1.0" encoding="UTF-8"?>
<svg xmlns:xlink="http://www.w3.org/1999/xlink" xmlns="http://www.w3.org/2000/svg" width="16pt" height="16pt"
     viewBox="0 0 16 16" version="1.1">
    <g id="surface1">
        <path style=" stroke:none;fill-rule:evenodd;fill:rgb(0%,0%,0%);fill-opacity:1;"
              d="M 10.664062 16 L 2.261719 16 C 2.261719 16 2.75 13.378906 2.683594 12.207031 C 2.65625 11.726562 2.574219 11.226562 2.324219 10.804688 C 1.894531 10.140625 0.566406 8.324219 0.671875 5.851562 C 0.820312 2.378906 3.800781 0 7.421875 0 C 10.820312 0 13.09375 2 13.996094 4.988281 C 14.214844 5.707031 14.203125 6.015625 13.894531 6.726562 L 13.890625 6.734375 L 15.058594 8.164062 C 15.230469 8.417969 15.332031 8.691406 15.332031 8.988281 C 15.332031 9.355469 15.179688 9.6875 14.925781 9.921875 C 14.679688 10.152344 14.414062 10.222656 14.09375 10.351562 C 14.09375 10.351562 13.710938 12.078125 13.511719 12.542969 C 13.046875 13.640625 12.199219 13.648438 11.53125 13.777344 C 11.269531 13.832031 11.207031 13.867188 11.078125 14.230469 C 10.941406 14.625 10.835938 15.1875 10.664062 16 M 7.4375 1.332031 C 4.578125 1.363281 2.277344 3.03125 2.023438 5.65625 C 1.894531 6.984375 2.332031 8.316406 3.03125 9.460938 C 3.441406 10.128906 3.902344 10.523438 4.007812 12.042969 C 4.070312 12.921875 3.976562 13.800781 3.847656 14.664062 L 9.585938 14.664062 C 9.679688 14.234375 9.816406 13.675781 10.042969 13.292969 C 10.339844 12.785156 10.773438 12.5625 11.324219 12.457031 C 11.882812 12.359375 12.152344 12.417969 12.320312 11.933594 C 12.460938 11.550781 12.726562 10.453125 12.871094 9.335938 C 13.675781 9.109375 13.28125 9.226562 13.988281 8.960938 C 13.847656 8.804688 12.707031 7.417969 12.625 7.226562 C 12.398438 6.722656 12.59375 6.433594 12.773438 5.953125 C 12.832031 5.785156 12.8125 5.714844 12.765625 5.542969 C 12.066406 2.910156 10.171875 1.332031 7.4375 1.332031 M 7.78125 3.332031 C 7.945312 3.789062 7.992188 4.082031 8.34375 4.226562 C 8.699219 4.375 8.9375 4.199219 9.371094 3.992188 L 10.007812 4.625 C 9.800781 5.0625 9.625 5.304688 9.773438 5.65625 C 9.917969 6.007812 10.207031 6.054688 10.667969 6.214844 L 10.667969 7.113281 C 10.210938 7.277344 9.917969 7.324219 9.773438 7.675781 C 9.625 8.03125 9.800781 8.269531 10.007812 8.707031 L 9.371094 9.339844 C 8.933594 9.132812 8.695312 8.957031 8.34375 9.105469 C 7.992188 9.253906 7.945312 9.542969 7.78125 10 L 6.882812 10 C 6.722656 9.542969 6.675781 9.25 6.324219 9.105469 C 5.96875 8.957031 5.726562 9.132812 5.292969 9.339844 L 4.660156 8.707031 C 4.863281 8.277344 5.042969 8.03125 4.894531 7.675781 C 4.746094 7.324219 4.453125 7.277344 4 7.113281 L 4 6.214844 C 4.453125 6.054688 4.746094 6.007812 4.894531 5.65625 C 5.039062 5.300781 4.867188 5.0625 4.660156 4.625 L 5.292969 3.992188 C 5.730469 4.199219 5.96875 4.375 6.324219 4.226562 C 6.675781 4.082031 6.722656 3.785156 6.882812 3.332031 Z M 7.332031 7.777344 C 6.71875 7.777344 6.222656 7.28125 6.222656 6.664062 C 6.222656 6.050781 6.71875 5.554688 7.332031 5.554688 C 7.945312 5.554688 8.445312 6.050781 8.445312 6.664062 C 8.445312 7.28125 7.945312 7.777344 7.332031 7.777344 "/>
    </g>
</svg>
